<svg  viewBox="0 0 690 376"  style="fill:none !important; width:100%; height:100%" xmlns="http://www.w3.org/2000/svg">
<g opacity="0.1">
<path d="M534.587 135.248L512.598 99.7591L528.031 67.2538L565.453 70.2372L587.443 105.726L572.01 138.231L534.587 135.248Z" fill="url(#paint0_linear_144_1618)"/>
<path d="M512.599 99.7562L344.624 220.662L357.861 242.024L534.586 135.252L512.599 99.7562Z" fill="url(#paint1_linear_144_1618)"/>
<path d="M572.009 138.231L380.385 243.822L357.862 242.024L534.587 135.252L572.009 138.231Z" fill="url(#paint2_linear_144_1618)"/>
<path d="M534.586 135.253L587.442 105.725L572.007 138.232L534.586 135.253Z" fill="url(#paint3_linear_144_1618)"/>
<path d="M512.598 99.7567L344.624 220.663L353.911 201.096L528.031 67.2544L512.598 99.7567Z" fill="url(#paint4_linear_144_1618)"/>
</g>
<g style="mix-blend-mode:lighten" filter="url(#filter0_f_144_1618)">
<ellipse cx="439.5" cy="194.5" rx="229.5" ry="102.5" fill="url(#paint5_radial_144_1618)" fill-opacity="0.3"/>
</g>
<path d="M500.071 131.577L521.819 165.064L557.644 167.231L571.721 135.912L549.973 102.425L514.148 100.258L500.071 131.577Z" fill="url(#paint6_linear_144_1618)"/>
<path d="M326.037 225.441L339.129 245.599L360.695 246.904L369.17 228.051L356.078 207.892L334.511 206.588L326.037 225.441Z" fill="url(#paint7_linear_144_1618)"/>
<path d="M521.822 165.064L339.129 245.598L326.039 225.441L500.067 131.576L521.822 165.064Z" fill="url(#paint8_linear_144_1618)"/>
<path d="M514.147 100.259L334.509 206.589L326.039 225.441L500.066 131.576L514.147 100.259Z" fill="url(#paint9_linear_144_1618)"/>
<path d="M500.067 131.576L549.976 102.427L514.148 100.26L500.067 131.576Z" fill="url(#paint10_linear_144_1618)"/>
<path d="M521.822 165.064L339.13 245.597L360.694 246.905L557.645 167.231L521.822 165.064Z" fill="url(#paint11_linear_144_1618)"/>
<g filter="url(#filter1_dd_144_1618)">
<ellipse cx="210.474" cy="108.345" rx="17.4738" ry="16.345" fill="url(#paint12_linear_144_1618)" shape-rendering="crispEdges"/>
</g>
<g filter="url(#filter2_dd_144_1618)">
<ellipse cx="49.9273" cy="182.092" rx="12.9273" ry="12.0922" fill="url(#paint13_linear_144_1618)" shape-rendering="crispEdges"/>
</g>
<ellipse cx="200.047" cy="252.716" rx="131.19" ry="122.716" fill="url(#paint14_radial_144_1618)" fill-opacity="0.6"/>
<g filter="url(#filter3_d_144_1618)">
<ellipse cx="227.032" cy="280.244" rx="78.6028" ry="46.0615" fill="url(#paint15_linear_144_1618)" fill-opacity="0.5" shape-rendering="crispEdges"/>
<path d="M305.117 280.244C305.117 292.704 296.495 304.079 282.351 312.368C268.219 320.649 248.662 325.788 227.032 325.788C205.402 325.788 185.845 320.649 171.713 312.368C157.569 304.079 148.947 292.704 148.947 280.244C148.947 267.784 157.569 256.409 171.713 248.12C185.845 239.839 205.402 234.7 227.032 234.7C248.662 234.7 268.219 239.839 282.351 248.12C296.495 256.409 305.117 267.784 305.117 280.244Z" stroke="url(#paint16_linear_144_1618)" stroke-opacity="0.6" stroke-width="1.03515" shape-rendering="crispEdges"/>
</g>
<ellipse cx="227.031" cy="237.294" rx="99.7202" ry="93.2783" fill="url(#paint17_radial_144_1618)"/>
<ellipse cx="227.031" cy="252.716" rx="97.4932" ry="53.3509" fill="url(#paint18_linear_144_1618)" fill-opacity="0.5"/>
<path d="M324.006 252.716C324.006 267.171 313.292 280.371 295.72 289.987C278.167 299.592 253.883 305.549 227.031 305.549C200.178 305.549 175.894 299.592 158.341 289.987C140.769 280.371 130.055 267.171 130.055 252.716C130.055 238.261 140.769 225.061 158.341 215.445C175.894 205.84 200.178 199.883 227.031 199.883C253.883 199.883 278.167 205.84 295.72 215.445C313.292 225.061 324.006 238.261 324.006 252.716Z" stroke="url(#paint19_linear_144_1618)" stroke-opacity="0.6" stroke-width="1.03515"/>
<ellipse cx="227.031" cy="237.293" rx="73.8647" ry="69.0931" fill="url(#paint20_radial_144_1618)"/>
<ellipse cx="227.031" cy="237.293" rx="73.8647" ry="69.0931" fill="url(#paint21_radial_144_1618)"/>
<g filter="url(#filter4_d_144_1618)">
<ellipse cx="227.031" cy="219.594" rx="96.5016" ry="52.1171" fill="url(#paint22_linear_144_1618)" fill-opacity="0.5" shape-rendering="crispEdges"/>
<path d="M323.015 219.594C323.015 233.704 312.417 246.596 295.022 255.991C277.648 265.374 253.61 271.193 227.031 271.193C200.452 271.193 176.414 265.374 159.04 255.991C141.645 246.596 131.047 233.704 131.047 219.594C131.047 205.483 141.645 192.591 159.04 183.197C176.414 173.813 200.452 167.994 227.031 167.994C253.61 167.994 277.648 173.813 295.022 183.197C312.417 192.591 323.015 205.483 323.015 219.594Z" stroke="url(#paint23_linear_144_1618)" stroke-opacity="0.6" stroke-width="1.03515" shape-rendering="crispEdges"/>
</g>
<g filter="url(#filter5_d_144_1618)">
<ellipse cx="227.031" cy="192.681" rx="74.8824" ry="45.2752" fill="url(#paint24_linear_144_1618)" fill-opacity="0.5" shape-rendering="crispEdges"/>
<path d="M301.395 192.681C301.395 204.932 293.18 216.11 279.713 224.253C266.255 232.389 247.63 237.439 227.031 237.439C206.431 237.439 187.806 232.389 174.348 224.253C160.881 216.11 152.666 204.932 152.666 192.681C152.666 180.43 160.881 169.252 174.348 161.11C187.806 152.973 206.431 147.923 227.031 147.923C247.63 147.923 266.255 152.973 279.713 161.11C293.18 169.252 301.395 180.43 301.395 192.681Z" stroke="url(#paint25_linear_144_1618)" stroke-opacity="0.6" stroke-width="1.03515" shape-rendering="crispEdges"/>
</g>
<ellipse cx="227.032" cy="176.956" rx="46.6087" ry="29.5498" fill="url(#paint26_linear_144_1618)" fill-opacity="0.5"/>
<path d="M273.123 176.956C273.123 184.876 268.058 192.122 259.712 197.413C251.373 202.701 239.82 205.988 227.032 205.988C214.244 205.988 202.692 202.701 194.352 197.413C186.006 192.122 180.941 184.876 180.941 176.956C180.941 169.035 186.006 161.789 194.352 156.498C202.692 151.211 214.244 147.923 227.032 147.923C239.82 147.923 251.373 151.211 259.712 156.498C268.058 161.789 273.123 169.035 273.123 176.956Z" stroke="url(#paint27_linear_144_1618)" stroke-opacity="0.6" stroke-width="1.03515"/>
<ellipse cx="227.031" cy="166.868" rx="26.9842" ry="17.3674" fill="url(#paint28_linear_144_1618)" fill-opacity="0.5"/>
<path d="M253.498 166.868C253.498 171.428 250.625 175.628 245.832 178.713C241.044 181.795 234.398 183.718 227.031 183.718C219.664 183.718 213.018 181.795 208.231 178.713C203.437 175.628 200.565 171.428 200.565 166.868C200.565 162.308 203.437 158.108 208.231 155.023C213.018 151.941 219.664 150.018 227.031 150.018C234.398 150.018 241.044 151.941 245.832 155.023C250.625 158.108 253.498 162.308 253.498 166.868Z" stroke="url(#paint29_linear_144_1618)" stroke-opacity="0.6" stroke-width="1.03515"/>
<ellipse cx="227.031" cy="237.293" rx="99.7202" ry="93.2783" fill="url(#paint30_radial_144_1618)" fill-opacity="0.3"/>
<path d="M356.561 229.298L353.366 230.723C353.051 230.029 352.745 229.338 352.445 228.65C352.146 227.962 351.84 227.271 351.525 226.577L348.535 227.994C348.569 228.106 348.609 228.217 348.654 228.325C348.695 228.422 348.735 228.52 348.776 228.617C349.028 229.223 349.302 229.82 349.597 230.407C349.899 230.98 350.201 231.552 350.503 232.125C350.291 232.226 350.072 232.324 349.844 232.418C349.632 232.519 349.418 232.615 349.202 232.705C348.78 232.88 348.348 233.047 347.906 233.206C347.48 233.371 347.056 233.541 346.634 233.717C346.237 232.702 345.849 231.695 345.472 230.697C345.094 229.699 344.707 228.693 344.31 227.677C343.921 226.684 343.527 225.706 343.126 224.743C342.736 223.776 342.344 222.803 341.949 221.825L344.659 220.696C345.083 221.472 345.481 222.258 345.851 223.056C346.217 223.843 346.601 224.629 347.004 225.413C347.519 225.186 348.03 224.967 348.539 224.755C349.047 224.543 349.564 224.322 350.09 224.09L348.063 218.765C348.21 218.691 348.354 218.625 348.494 218.566C348.646 218.503 348.797 218.44 348.949 218.377C349.381 218.197 349.808 218.032 350.228 217.882C350.659 217.728 351.101 217.601 351.554 217.502C352.433 219.459 353.277 221.424 354.086 223.398C354.89 225.36 355.715 227.327 356.561 229.298ZM378.463 220.026L377.328 221.965L374.256 221.263C374.1 221.468 373.944 221.673 373.788 221.877C373.632 222.082 373.474 222.281 373.314 222.475C372.809 223.091 372.27 223.626 371.697 224.081C371.14 224.541 370.488 224.927 369.742 225.238C369.385 225.386 369.013 225.516 368.628 225.625C368.253 225.731 367.869 225.815 367.475 225.877C367.241 225.923 367.035 225.946 366.856 225.944C366.682 225.953 366.512 225.941 366.346 225.909C366.196 225.883 366.036 225.835 365.868 225.765C365.71 225.691 365.532 225.6 365.335 225.492C365.118 225.367 364.943 225.192 364.812 224.967C364.68 224.743 364.57 224.522 364.479 224.306C364.349 223.992 364.24 223.67 364.152 223.338C364.061 222.995 363.995 222.655 363.955 222.316C363.924 222.087 363.951 221.772 364.037 221.368C364.118 220.953 364.226 220.527 364.361 220.09C364.492 219.642 364.621 219.22 364.749 218.824C364.887 218.424 364.994 218.119 365.072 217.909C364.958 217.88 364.778 217.828 364.531 217.754C364.284 217.679 364.022 217.597 363.744 217.51C363.462 217.412 363.201 217.317 362.96 217.227C362.715 217.126 362.553 217.041 362.473 216.973C362.319 216.847 362.193 216.664 362.093 216.426C362.017 216.243 361.942 216.001 361.868 215.702C361.8 215.387 361.747 215.06 361.707 214.721C361.668 214.382 361.648 214.06 361.648 213.756C361.659 213.447 361.71 213.203 361.801 213.026C361.894 212.822 362.1 212.616 362.419 212.407C362.734 212.187 363.079 211.979 363.455 211.785C363.842 211.586 364.217 211.404 364.58 211.24C364.943 211.076 365.231 210.944 365.443 210.843C365.525 210.796 365.615 210.752 365.712 210.712C365.809 210.671 365.907 210.631 366.004 210.59C366.274 210.477 366.586 210.373 366.94 210.277C367.289 210.169 367.651 210.095 368.027 210.052C368.398 209.999 368.767 209.985 369.133 210.011C369.495 210.025 369.818 210.1 370.103 210.235C370.179 210.267 370.25 210.346 370.315 210.471C370.375 210.585 370.419 210.675 370.446 210.74C370.558 211.01 370.645 211.311 370.707 211.641C370.768 211.97 370.809 212.283 370.831 212.579L367.864 214.005C367.807 213.838 367.747 213.679 367.684 213.527C367.627 213.361 367.567 213.202 367.504 213.05C367.495 213.028 367.463 212.966 367.407 212.862C367.357 212.743 367.3 212.621 367.235 212.496C367.181 212.366 367.121 212.251 367.054 212.152C366.998 212.048 366.952 211.998 366.915 212.001C366.815 212.004 366.722 212.024 366.635 212.06C366.555 212.081 366.466 212.111 366.369 212.152C366.304 212.179 366.198 212.229 366.051 212.303C365.899 212.366 365.742 212.445 365.578 212.538C365.409 212.621 365.253 212.705 365.111 212.79C364.979 212.87 364.896 212.93 364.862 212.97C364.777 213.069 364.757 213.204 364.803 213.375C364.849 213.547 364.892 213.681 364.932 213.778C364.973 213.876 365.021 213.976 365.077 214.08C365.128 214.173 365.185 214.263 365.247 214.352C365.381 214.55 365.589 214.761 365.873 214.986C366.168 215.206 366.479 215.419 366.806 215.626C367.144 215.828 367.475 216.014 367.8 216.183C368.135 216.348 368.41 216.475 368.624 216.563C368.981 216.719 369.365 216.864 369.776 216.998C370.187 217.131 370.602 217.257 371.019 217.375C371.447 217.489 371.873 217.597 372.297 217.7C372.72 217.803 373.121 217.896 373.499 217.98C373.62 217.815 373.763 217.61 373.927 217.364C374.087 217.107 374.193 216.872 374.244 216.661C374.279 216.532 374.317 216.408 374.356 216.29C374.391 216.161 374.434 216.036 374.485 215.913L376.87 216.748C376.752 217.165 376.611 217.56 376.449 217.932C376.293 218.289 376.112 218.663 375.907 219.053L378.463 220.026ZM372.032 220.038C371.217 219.819 370.408 219.597 369.604 219.373C368.811 219.145 368.005 218.916 367.185 218.686C367.139 218.819 367.079 219.009 367.004 219.256C366.929 219.503 366.859 219.761 366.793 220.03C366.733 220.283 366.692 220.535 366.669 220.786C366.647 221.036 366.665 221.232 366.723 221.372C366.832 221.632 367.035 221.846 367.333 222.014C367.642 222.177 367.98 222.303 368.347 222.391C368.709 222.469 369.075 222.507 369.442 222.506C369.806 222.495 370.101 222.441 370.328 222.347C370.382 222.324 370.425 222.306 370.458 222.293C370.497 222.264 370.539 222.227 370.584 222.183C370.685 222.091 370.805 221.952 370.943 221.767C371.089 221.567 371.232 221.361 371.372 221.15C371.508 220.929 371.638 220.722 371.762 220.531C371.881 220.329 371.971 220.165 372.032 220.038ZM396.857 206.445C397.254 207.397 397.64 208.341 398.017 209.276C398.4 210.195 398.784 211.133 399.17 212.09C398.485 212.337 397.813 212.597 397.153 212.872C396.829 213.007 396.505 213.161 396.184 213.333C395.873 213.501 395.566 213.679 395.264 213.868C394.479 213.141 393.699 212.425 392.923 211.72C392.142 211.004 391.359 210.283 390.574 209.556C389.997 209.023 389.435 208.482 388.89 207.935C388.345 207.387 387.797 206.835 387.248 206.277C387.758 207.778 388.261 209.275 388.757 210.77C389.259 212.25 389.781 213.733 390.324 215.22L386.779 216.583C385.86 214.528 384.951 212.482 384.051 210.444C383.152 208.407 382.216 206.372 381.243 204.34L387.575 201.666C388.016 202.117 388.444 202.58 388.857 203.055C389.277 203.515 389.691 203.99 390.098 204.48C390.703 205.231 391.338 205.963 392.003 206.677C392.664 207.379 393.326 208.087 393.992 208.8C393.418 207.452 392.83 206.117 392.228 204.793C391.637 203.465 391.047 202.124 390.458 200.77L393.898 199.795C394.409 200.902 394.914 202.006 395.41 203.106C395.906 204.207 396.389 205.32 396.857 206.445ZM418.762 203.399L416.451 204.799C416.048 204.319 415.647 203.845 415.249 203.376C414.846 202.897 414.449 202.415 414.057 201.931L410.125 203.739L410.521 206.106L408.022 207.147C407.408 205.245 406.803 203.351 406.209 201.466C405.614 199.581 405.012 197.693 404.402 195.801C405.127 195.347 405.856 194.917 406.588 194.511C407.331 194.1 408.097 193.73 408.887 193.401C409.85 193 410.819 192.616 411.795 192.247C412.437 193.3 413.073 194.355 413.704 195.413C414.341 196.455 414.986 197.501 415.638 198.549C416.137 199.382 416.643 200.2 417.155 201.002C417.677 201.8 418.213 202.599 418.762 203.399ZM412.57 199.96C412.518 199.867 412.417 199.7 412.266 199.458C412.11 199.206 411.944 198.945 411.768 198.675C411.588 198.395 411.41 198.151 411.236 197.945C411.067 197.723 410.941 197.604 410.858 197.588C410.832 197.586 410.774 197.598 410.683 197.623C410.602 197.644 410.511 197.669 410.41 197.699C410.318 197.724 410.23 197.755 410.143 197.791C410.057 197.827 409.997 197.851 409.965 197.865C409.911 197.887 409.835 197.919 409.737 197.959C409.651 197.996 409.556 198.041 409.452 198.097C409.355 198.138 409.262 198.189 409.174 198.251C409.096 198.309 409.048 198.361 409.029 198.407C409.012 198.427 409.014 198.508 409.035 198.652C409.057 198.795 409.081 198.975 409.108 199.193C409.142 199.394 409.176 199.615 409.212 199.854C409.259 200.088 409.301 200.312 409.339 200.524C409.377 200.737 409.409 200.921 409.435 201.075C409.472 201.224 409.49 201.312 409.488 201.338L412.57 199.96ZM424.43 187.881L425.211 190.032C424.866 190.15 424.524 190.273 424.184 190.402C423.845 190.531 423.507 190.665 423.172 190.804C423.031 190.863 422.833 190.952 422.578 191.071C422.318 191.179 422.028 191.306 421.708 191.452C421.399 191.593 421.081 191.745 420.755 191.906C420.429 192.067 420.129 192.217 419.857 192.356C419.585 192.495 419.358 192.621 419.177 192.734C418.996 192.848 418.89 192.93 418.86 192.98C418.778 193.18 418.776 193.371 418.852 193.555C418.902 193.674 418.975 193.758 419.071 193.807C419.106 193.83 419.237 193.808 419.462 193.739C419.687 193.671 419.961 193.582 420.284 193.473C420.602 193.353 420.948 193.222 421.32 193.08C421.699 192.922 422.058 192.779 422.398 192.65C422.744 192.506 423.049 192.385 423.313 192.288C423.588 192.186 423.782 192.118 423.895 192.084C424.328 191.967 424.702 191.951 425.017 192.035C425.342 192.116 425.629 192.269 425.876 192.497C426.118 192.713 426.327 192.988 426.504 193.32C426.691 193.648 426.86 193.991 427.008 194.348C427.08 194.521 427.15 194.733 427.216 194.985C427.294 195.232 427.355 195.486 427.4 195.746C427.445 196.007 427.456 196.262 427.434 196.513C427.422 196.759 427.37 196.971 427.279 197.148C427.171 197.346 426.951 197.564 426.619 197.804C426.298 198.039 425.938 198.272 425.539 198.502C425.15 198.727 424.766 198.931 424.385 199.115C424.005 199.299 423.712 199.434 423.506 199.519C422.792 199.817 422.062 200.076 421.317 200.298C420.567 200.508 419.82 200.711 419.076 200.907L417.786 197.807C418.526 197.664 419.241 197.462 419.932 197.199C420.633 196.933 421.341 196.682 422.056 196.448C422.201 196.4 422.417 196.323 422.702 196.217C422.995 196.095 423.284 195.968 423.572 195.836C423.855 195.693 424.104 195.544 424.32 195.391C424.535 195.238 424.65 195.102 424.663 194.982C424.671 194.94 424.667 194.898 424.649 194.855C424.63 194.811 424.615 194.773 424.601 194.741C424.565 194.654 424.509 194.551 424.434 194.43C424.364 194.294 424.287 194.199 424.201 194.146C424.186 194.14 424.146 194.15 424.081 194.177C424.011 194.193 423.971 194.204 423.96 194.208C423.341 194.428 422.728 194.664 422.123 194.916C421.512 195.158 420.888 195.38 420.248 195.582C419.991 195.664 419.727 195.748 419.459 195.835C419.196 195.906 418.929 195.966 418.658 196.016C418.435 196.058 418.225 196.088 418.029 196.106C417.845 196.12 417.669 196.11 417.503 196.078C417.348 196.041 417.201 195.975 417.06 195.882C416.915 195.777 416.779 195.618 416.652 195.404C416.599 195.338 416.558 195.272 416.531 195.207C416.5 195.131 416.466 195.05 416.43 194.963C416.349 194.769 416.267 194.542 416.185 194.285C416.103 194.027 416.038 193.762 415.988 193.491C415.95 193.215 415.928 192.951 415.925 192.698C415.928 192.431 415.975 192.195 416.068 191.991C416.125 191.853 416.265 191.7 416.486 191.532C416.708 191.363 416.972 191.19 417.279 191.011C417.581 190.822 417.909 190.635 418.263 190.449C418.618 190.263 418.96 190.095 419.291 189.945C419.628 189.779 419.932 189.64 420.203 189.527C420.479 189.399 420.688 189.306 420.829 189.248C421.435 188.995 422.034 188.758 422.627 188.537C423.231 188.311 423.832 188.092 424.43 187.881ZM437.4 192.325L438.313 195.296C437.976 195.462 437.637 195.622 437.295 195.777C436.958 195.943 436.616 196.098 436.27 196.242C436.086 196.319 435.84 196.415 435.533 196.53C435.226 196.645 434.905 196.76 434.572 196.873C434.233 196.976 433.909 197.066 433.599 197.145C433.285 197.212 433.025 197.244 432.82 197.24C432.511 197.23 432.23 197.163 431.975 197.04C431.732 196.913 431.509 196.758 431.306 196.576C431.099 196.383 430.909 196.17 430.736 195.938C430.558 195.694 430.399 195.45 430.259 195.203C430.122 194.968 429.985 194.714 429.846 194.442C429.714 194.154 429.579 193.861 429.442 193.563C429.316 193.26 429.194 192.968 429.077 192.687C428.956 192.395 428.843 192.124 428.74 191.875L428.537 191.389L427.531 191.807C427.371 191.303 427.192 190.812 426.994 190.336C426.807 189.856 426.633 189.363 426.474 188.858L427.461 188.485L426.461 186.084C427.127 185.946 427.766 185.756 428.376 185.515C428.993 185.258 429.618 185.023 430.253 184.809L431.254 187.306L432.651 186.819C432.683 186.895 432.712 186.965 432.739 187.03C432.777 187.091 432.812 187.159 432.843 187.234C432.969 187.537 433.066 187.846 433.134 188.161C433.207 188.46 433.267 188.771 433.313 189.095L432.129 189.588C432.314 190.095 432.505 190.599 432.702 191.102C432.898 191.604 433.1 192.104 433.307 192.601C433.406 192.839 433.502 193.053 433.593 193.244C433.692 193.419 433.8 193.557 433.919 193.66C434.049 193.758 434.209 193.806 434.398 193.804C434.587 193.801 434.828 193.739 435.12 193.617C435.52 193.451 435.909 193.257 436.287 193.036C436.665 192.815 437.036 192.578 437.4 192.325ZM447.205 184.548C445.819 185.214 444.435 185.867 443.051 186.507C441.662 187.136 440.271 187.772 438.876 188.416C438.883 188.464 438.896 188.51 438.914 188.553C438.932 188.596 438.95 188.639 438.968 188.683C439.121 189.051 439.319 189.298 439.563 189.425C439.817 189.548 440.087 189.601 440.371 189.584C440.652 189.556 440.946 189.484 441.253 189.369C441.56 189.254 441.844 189.142 442.104 189.034C442.829 188.732 443.544 188.408 444.251 188.063C444.953 187.707 445.661 187.349 446.374 186.989L447.578 189.515C446.878 189.845 446.175 190.169 445.47 190.488C444.776 190.803 444.072 191.108 443.358 191.406C443.206 191.469 442.925 191.586 442.514 191.757C442.109 191.913 441.67 192.077 441.196 192.249C440.728 192.406 440.285 192.546 439.866 192.669C439.448 192.793 439.158 192.843 438.997 192.822C438.58 192.767 438.212 192.628 437.891 192.406C437.581 192.18 437.297 191.911 437.041 191.599C436.795 191.282 436.573 190.949 436.377 190.599C436.187 190.234 436.014 189.881 435.859 189.539C435.826 189.49 435.798 189.438 435.775 189.384C435.759 189.314 435.74 189.253 435.717 189.198C435.479 188.625 435.317 188.07 435.234 187.534C435.156 186.982 435.188 186.404 435.33 185.799C435.422 185.38 435.645 184.97 435.998 184.569C436.352 184.168 436.763 183.8 437.233 183.464C437.698 183.118 438.182 182.816 438.683 182.556C439.18 182.286 439.617 182.072 439.996 181.914C440.331 181.774 440.756 181.636 441.27 181.498C441.779 181.349 442.301 181.246 442.836 181.189C443.381 181.127 443.896 181.128 444.38 181.193C444.859 181.247 445.237 181.407 445.513 181.673C445.562 181.729 445.631 181.834 445.72 181.987C445.815 182.125 445.922 182.29 446.04 182.482C446.154 182.663 446.269 182.863 446.385 183.081C446.512 183.295 446.629 183.5 446.736 183.697C446.843 183.893 446.936 184.07 447.015 184.228C447.104 184.381 447.167 184.488 447.205 184.548ZM444.505 184.283C444.242 183.834 443.962 183.512 443.665 183.319C443.375 183.109 443.068 182.996 442.743 182.979C442.425 182.946 442.086 182.986 441.727 183.098C441.373 183.194 441.002 183.323 440.612 183.485C440.482 183.539 440.322 183.612 440.132 183.704C439.937 183.785 439.749 183.883 439.568 183.996C439.383 184.099 439.214 184.213 439.064 184.34C438.913 184.466 438.81 184.598 438.753 184.736C438.704 184.832 438.677 184.951 438.673 185.093C438.675 185.219 438.686 185.354 438.708 185.497C438.73 185.64 438.757 185.781 438.789 185.92C438.828 186.044 438.865 186.149 438.901 186.235C438.973 186.408 439.059 186.569 439.159 186.718L444.505 184.283ZM457.506 179.288L457.661 179.662L454.59 181.112C454.564 180.958 454.513 180.789 454.436 180.605C454.324 180.334 454.214 180.177 454.106 180.133C453.995 180.078 453.809 180.104 453.549 180.212C453.181 180.365 452.803 180.599 452.413 180.914C452.024 181.228 451.686 181.515 451.4 181.774C451.544 182.272 451.699 182.766 451.865 183.256C452.031 183.745 452.213 184.228 452.411 184.704C452.632 185.234 452.852 185.764 453.073 186.294C453.3 186.809 453.529 187.329 453.761 187.855L451.044 189.195C450.702 188.526 450.362 187.861 450.024 187.202C449.681 186.532 449.344 185.86 449.013 185.186C448.576 184.289 448.125 183.404 447.66 182.531C447.191 181.648 446.719 180.759 446.245 179.864C446.88 179.651 447.518 179.461 448.16 179.296C448.808 179.115 449.465 178.955 450.131 178.817L450.618 180.214C450.834 179.82 451.05 179.469 451.266 179.164C451.487 178.843 451.723 178.555 451.972 178.299C452.231 178.038 452.523 177.809 452.847 177.611C453.166 177.402 453.536 177.209 453.958 177.033C454.24 176.916 454.545 176.827 454.875 176.766C455.201 176.694 455.517 176.721 455.823 176.847C455.981 176.921 456.147 177.062 456.322 177.268C456.497 177.474 456.662 177.704 456.818 177.956C456.969 178.198 457.104 178.446 457.223 178.702C457.349 178.941 457.443 179.137 457.506 179.288ZM470.485 174.379C470.521 174.466 470.557 174.552 470.593 174.639C470.625 174.715 470.653 174.798 470.678 174.889C470.731 175.045 470.807 175.305 470.908 175.669C471.009 176.033 471.1 176.421 471.182 176.831C471.26 177.23 471.31 177.609 471.332 177.968C471.355 178.327 471.319 178.577 471.225 178.717C471.178 178.787 470.972 178.918 470.607 179.108C470.253 179.293 469.812 179.515 469.284 179.773C468.768 180.026 468.2 180.294 467.582 180.577C466.963 180.86 466.372 181.131 465.808 181.392C465.25 181.637 464.756 181.855 464.328 182.046C463.911 182.232 463.632 182.355 463.491 182.413C463.426 182.44 463.313 182.488 463.15 182.555C462.999 182.618 462.837 182.686 462.664 182.758C462.486 182.819 462.319 182.876 462.163 182.928C462.007 182.98 461.892 183.009 461.818 183.015C461.644 183.024 461.457 183 461.256 182.944C461.05 182.877 460.851 182.795 460.658 182.698C460.461 182.59 460.274 182.477 460.099 182.36C459.929 182.227 459.791 182.094 459.685 181.961C459.603 181.855 459.502 181.688 459.381 181.459C459.256 181.219 459.133 180.972 459.015 180.717C458.891 180.451 458.772 180.196 458.658 179.951C458.554 179.702 458.475 179.513 458.421 179.383C458.336 179.178 458.224 178.894 458.086 178.533C457.944 178.16 457.821 177.774 457.717 177.372C457.614 176.971 457.543 176.588 457.505 176.223C457.474 175.843 457.528 175.547 457.669 175.336C457.733 175.246 457.875 175.13 458.095 174.987C458.315 174.845 458.581 174.69 458.892 174.522C459.203 174.355 459.54 174.189 459.903 174.025C460.262 173.85 460.615 173.691 460.961 173.547C461.313 173.387 461.641 173.244 461.944 173.118C462.247 172.992 462.492 172.896 462.681 172.83C462.848 172.774 463.085 172.688 463.392 172.572C463.695 172.446 464.033 172.312 464.405 172.17C464.788 172.023 465.187 171.882 465.6 171.748C466.01 171.603 466.396 171.48 466.761 171.379C467.125 171.278 467.453 171.212 467.744 171.179C468.041 171.132 468.254 171.138 468.381 171.2C468.584 171.293 468.792 171.473 469.005 171.739C469.218 172.006 469.418 172.304 469.605 172.632C469.799 172.945 469.971 173.267 470.122 173.598C470.278 173.913 470.4 174.174 470.485 174.379ZM467.187 176.152C467.133 176.023 467.064 175.873 466.981 175.705C466.898 175.536 466.81 175.37 466.716 175.206C466.618 175.031 466.514 174.871 466.403 174.727C466.288 174.572 466.175 174.454 466.065 174.373C465.92 174.268 465.707 174.23 465.427 174.258C465.146 174.285 464.848 174.346 464.532 174.44C464.221 174.518 463.918 174.613 463.621 174.724C463.336 174.83 463.122 174.912 462.982 174.971C462.906 175.002 462.773 175.064 462.583 175.156C462.388 175.237 462.185 175.328 461.973 175.429C461.772 175.525 461.586 175.628 461.416 175.737C461.241 175.835 461.133 175.912 461.093 175.967C461.022 176.072 460.989 176.207 460.994 176.37C460.994 176.522 461.011 176.686 461.046 176.862C461.092 177.033 461.144 177.202 461.2 177.369C461.264 177.521 461.315 177.645 461.356 177.742C461.396 177.84 461.476 178.016 461.595 178.271C461.72 178.511 461.855 178.773 461.998 179.056C462.147 179.323 462.293 179.567 462.436 179.787C462.578 180.007 462.695 180.136 462.787 180.174C462.899 180.229 463.069 180.241 463.297 180.209C463.536 180.173 463.783 180.127 464.039 180.072C464.302 180 464.551 179.928 464.787 179.855C465.019 179.772 465.183 179.709 465.281 179.669C465.454 179.597 465.657 179.506 465.891 179.396C466.124 179.286 466.351 179.16 466.571 179.018C466.802 178.871 467.009 178.714 467.194 178.548C467.379 178.383 467.509 178.208 467.585 178.024C467.629 177.917 467.642 177.778 467.622 177.609C467.602 177.439 467.567 177.264 467.516 177.081C467.466 176.899 467.407 176.727 467.339 176.565C467.278 176.387 467.227 176.25 467.187 176.152ZM473.071 168.104C473.161 168.321 473.198 168.547 473.181 168.782C473.171 169.002 473.115 169.216 473.011 169.424C472.918 169.628 472.792 169.814 472.633 169.981C472.47 170.138 472.291 170.257 472.097 170.338C471.88 170.428 471.654 170.465 471.419 170.449C471.195 170.428 470.981 170.371 470.777 170.278C470.573 170.185 470.393 170.057 470.236 169.894C470.075 169.72 469.951 169.53 469.866 169.325C469.78 169.119 469.739 168.914 469.743 168.709C469.753 168.489 469.796 168.288 469.871 168.104C469.958 167.915 470.072 167.747 470.214 167.599C470.366 167.447 470.545 167.328 470.751 167.243C470.956 167.157 471.174 167.117 471.405 167.122C471.642 167.113 471.868 167.152 472.082 167.24C472.303 167.313 472.503 167.427 472.681 167.581C472.855 167.724 472.985 167.899 473.071 168.104ZM474.885 170.586C475.069 171.182 475.263 171.768 475.464 172.344C475.666 172.92 475.868 173.496 476.07 174.072C476.301 174.75 476.498 175.436 476.66 176.13C476.833 176.82 476.99 177.516 477.13 178.22L474.755 179.513C474.611 179.167 474.469 178.826 474.33 178.491C474.201 178.151 474.064 177.808 473.92 177.462C473.551 176.575 473.165 175.694 472.763 174.821C472.362 173.947 471.96 173.073 471.558 172.2C472.122 171.939 472.671 171.673 473.205 171.4C473.75 171.122 474.309 170.851 474.885 170.586ZM487.465 164.262C487.655 164.717 487.842 165.166 488.026 165.609C488.211 166.053 488.387 166.506 488.555 166.97C488.947 167.974 489.316 168.982 489.661 169.993C490.002 170.994 490.339 172.002 490.673 173.018C489.716 173.493 488.765 173.953 487.82 174.397C486.875 174.841 485.91 175.268 484.926 175.678C484.796 175.732 484.591 175.818 484.309 175.935C484.023 176.041 483.716 176.156 483.387 176.281C483.069 176.401 482.765 176.508 482.474 176.604C482.179 176.688 481.956 176.731 481.804 176.731C480.844 176.775 480.053 176.628 479.431 176.291C478.814 175.938 478.317 175.307 477.938 174.399L477.83 174.139C477.685 173.73 477.569 173.359 477.482 173.027C477.394 172.696 477.351 172.377 477.351 172.073C477.362 171.764 477.419 171.46 477.524 171.163C477.635 170.85 477.816 170.508 478.068 170.137C478.238 169.875 478.463 169.623 478.743 169.38C479.022 169.136 479.319 168.905 479.634 168.685C479.959 168.46 480.283 168.262 480.605 168.09C480.938 167.913 481.245 167.767 481.526 167.649C482.045 167.433 482.575 167.257 483.115 167.121C483.666 166.981 484.227 166.88 484.798 166.82C484.447 166.129 484.105 165.446 483.774 164.771C483.449 164.082 483.102 163.401 482.733 162.729C483.295 162.432 483.849 162.131 484.395 161.828C484.942 161.524 485.488 161.22 486.034 160.917C486.279 161.475 486.519 162.035 486.753 162.598C486.994 163.145 487.231 163.7 487.465 164.262ZM487.023 170.197C486.92 169.948 486.816 169.699 486.712 169.451C486.609 169.202 486.5 168.955 486.385 168.711C485.69 168.962 485.002 169.23 484.32 169.513C484.223 169.554 484.02 169.645 483.71 169.786C483.397 169.917 483.066 170.068 482.718 170.238C482.376 170.393 482.063 170.555 481.778 170.724C481.489 170.883 481.312 171.007 481.248 171.097C481.135 171.284 481.102 171.494 481.149 171.729C481.207 171.959 481.274 172.166 481.35 172.35C481.386 172.436 481.441 172.553 481.515 172.7C481.585 172.836 481.664 172.981 481.753 173.134C481.849 173.272 481.947 173.402 482.049 173.525C482.146 173.637 482.236 173.714 482.317 173.756C482.363 173.775 482.428 173.78 482.513 173.77C482.608 173.755 482.707 173.733 482.809 173.703C482.911 173.674 483.005 173.641 483.092 173.605C483.189 173.564 483.265 173.533 483.319 173.51C483.935 173.253 484.535 172.972 485.119 172.666C485.702 172.359 486.284 172.034 486.865 171.691C486.942 171.633 487.04 171.58 487.159 171.53C487.274 171.47 487.373 171.403 487.457 171.33L487.443 171.298C487.439 171.287 487.44 171.274 487.446 171.259C487.396 171.076 487.329 170.901 487.246 170.732C487.174 170.559 487.1 170.381 487.023 170.197Z" fill="#F8F8F8"/>
<defs>
<filter id="filter0_f_144_1618" x="189.297" y="71.297" width="500.406" height="246.406" filterUnits="userSpaceOnUse" color-interpolation-filters="sRGB">
<feFlood flood-opacity="0" result="BackgroundImageFix"/>
<feBlend mode="normal" in="SourceGraphic" in2="BackgroundImageFix" result="shape"/>
<feGaussianBlur stdDeviation="10.3515" result="effect1_foregroundBlur_144_1618"/>
</filter>
<filter id="filter1_dd_144_1618" x="156.77" y="53.6993" width="107.408" height="105.151" filterUnits="userSpaceOnUse" color-interpolation-filters="sRGB">
<feFlood flood-opacity="0" result="BackgroundImageFix"/>
<feColorMatrix in="SourceAlpha" type="matrix" values="0 0 0 0 0 0 0 0 0 0 0 0 0 0 0 0 0 0 127 0" result="hardAlpha"/>
<feOffset dy="-2.07031"/>
<feGaussianBlur stdDeviation="18.1152"/>
<feComposite in2="hardAlpha" operator="out"/>
<feColorMatrix type="matrix" values="0 0 0 0 0.371081 0 0 0 0 0.235903 0 0 0 0 0.658333 0 0 0 1 0"/>
<feBlend mode="normal" in2="BackgroundImageFix" result="effect1_dropShadow_144_1618"/>
<feColorMatrix in="SourceAlpha" type="matrix" values="0 0 0 0 0 0 0 0 0 0 0 0 0 0 0 0 0 0 127 0" result="hardAlpha"/>
<feOffset dy="-2.07031"/>
<feGaussianBlur stdDeviation="10.3515"/>
<feComposite in2="hardAlpha" operator="out"/>
<feColorMatrix type="matrix" values="0 0 0 0 0.48825 0 0 0 0 0.372778 0 0 0 0 0.733333 0 0 0 1 0"/>
<feBlend mode="normal" in2="effect1_dropShadow_144_1618" result="effect2_dropShadow_144_1618"/>
<feBlend mode="normal" in="SourceGraphic" in2="effect2_dropShadow_144_1618" result="shape"/>
</filter>
<filter id="filter2_dd_144_1618" x="0.769588" y="131.699" width="98.3154" height="96.6451" filterUnits="userSpaceOnUse" color-interpolation-filters="sRGB">
<feFlood flood-opacity="0" result="BackgroundImageFix"/>
<feColorMatrix in="SourceAlpha" type="matrix" values="0 0 0 0 0 0 0 0 0 0 0 0 0 0 0 0 0 0 127 0" result="hardAlpha"/>
<feOffset dy="-2.07031"/>
<feGaussianBlur stdDeviation="18.1152"/>
<feComposite in2="hardAlpha" operator="out"/>
<feColorMatrix type="matrix" values="0 0 0 0 0.371081 0 0 0 0 0.235903 0 0 0 0 0.658333 0 0 0 1 0"/>
<feBlend mode="normal" in2="BackgroundImageFix" result="effect1_dropShadow_144_1618"/>
<feColorMatrix in="SourceAlpha" type="matrix" values="0 0 0 0 0 0 0 0 0 0 0 0 0 0 0 0 0 0 127 0" result="hardAlpha"/>
<feOffset dy="-2.07031"/>
<feGaussianBlur stdDeviation="10.3515"/>
<feComposite in2="hardAlpha" operator="out"/>
<feColorMatrix type="matrix" values="0 0 0 0 0.48825 0 0 0 0 0.372778 0 0 0 0 0.733333 0 0 0 1 0"/>
<feBlend mode="normal" in2="effect1_dropShadow_144_1618" result="effect2_dropShadow_144_1618"/>
<feBlend mode="normal" in="SourceGraphic" in2="effect2_dropShadow_144_1618" result="shape"/>
</filter>
<filter id="filter3_d_144_1618" x="138.078" y="224.866" width="177.909" height="112.826" filterUnits="userSpaceOnUse" color-interpolation-filters="sRGB">
<feFlood flood-opacity="0" result="BackgroundImageFix"/>
<feColorMatrix in="SourceAlpha" type="matrix" values="0 0 0 0 0 0 0 0 0 0 0 0 0 0 0 0 0 0 127 0" result="hardAlpha"/>
<feOffset dy="1.03515"/>
<feGaussianBlur stdDeviation="5.17577"/>
<feComposite in2="hardAlpha" operator="out"/>
<feColorMatrix type="matrix" values="0 0 0 0 0.440043 0 0 0 0 0.20092 0 0 0 0 0.679167 0 0 0 0.3 0"/>
<feBlend mode="normal" in2="BackgroundImageFix" result="effect1_dropShadow_144_1618"/>
<feBlend mode="normal" in="SourceGraphic" in2="effect1_dropShadow_144_1618" result="shape"/>
</filter>
<filter id="filter4_d_144_1618" x="125.354" y="163.336" width="203.355" height="114.586" filterUnits="userSpaceOnUse" color-interpolation-filters="sRGB">
<feFlood flood-opacity="0" result="BackgroundImageFix"/>
<feColorMatrix in="SourceAlpha" type="matrix" values="0 0 0 0 0 0 0 0 0 0 0 0 0 0 0 0 0 0 127 0" result="hardAlpha"/>
<feOffset dy="1.03515"/>
<feGaussianBlur stdDeviation="2.58789"/>
<feComposite in2="hardAlpha" operator="out"/>
<feColorMatrix type="matrix" values="0 0 0 0 0.369333 0 0 0 0 0.0916667 0 0 0 0 0.5 0 0 0 0.15 0"/>
<feBlend mode="normal" in2="BackgroundImageFix" result="effect1_dropShadow_144_1618"/>
<feBlend mode="normal" in="SourceGraphic" in2="effect1_dropShadow_144_1618" result="shape"/>
</filter>
<filter id="filter5_d_144_1618" x="145.42" y="140.677" width="165.292" height="106.078" filterUnits="userSpaceOnUse" color-interpolation-filters="sRGB">
<feFlood flood-opacity="0" result="BackgroundImageFix"/>
<feColorMatrix in="SourceAlpha" type="matrix" values="0 0 0 0 0 0 0 0 0 0 0 0 0 0 0 0 0 0 127 0" result="hardAlpha"/>
<feOffset dx="1.03515" dy="1.03515"/>
<feGaussianBlur stdDeviation="3.88183"/>
<feComposite in2="hardAlpha" operator="out"/>
<feColorMatrix type="matrix" values="0 0 0 0 0.440043 0 0 0 0 0.20092 0 0 0 0 0.679167 0 0 0 0.2 0"/>
<feBlend mode="normal" in2="BackgroundImageFix" result="effect1_dropShadow_144_1618"/>
<feBlend mode="normal" in="SourceGraphic" in2="effect1_dropShadow_144_1618" result="shape"/>
</filter>
<linearGradient id="paint0_linear_144_1618" x1="542.292" y1="61.8552" x2="545.759" y2="138.481" gradientUnits="userSpaceOnUse">
<stop stop-color="white"/>
<stop offset="0.509629" stop-color="#FF96DB"/>
<stop offset="1" stop-color="#4AC9FF"/>
</linearGradient>
<linearGradient id="paint1_linear_144_1618" x1="383.747" y1="291.841" x2="508.846" y2="107.018" gradientUnits="userSpaceOnUse">
<stop offset="0.09375" stop-color="#2FB4FF"/>
<stop offset="0.484375" stop-color="#181EAD" stop-opacity="0.4"/>
<stop offset="0.998998" stop-color="#40F4FF"/>
</linearGradient>
<linearGradient id="paint2_linear_144_1618" x1="355.976" y1="245.109" x2="567.399" y2="129.782" gradientUnits="userSpaceOnUse">
<stop stop-color="#2FB4FF"/>
<stop offset="0.163279" stop-color="#1C348A" stop-opacity="0.8"/>
<stop offset="0.614583" stop-color="#2D18AD" stop-opacity="0.6"/>
<stop offset="1" stop-color="#40F4FF"/>
</linearGradient>
<linearGradient id="paint3_linear_144_1618" x1="586.71" y1="114.171" x2="535.288" y2="136.846" gradientUnits="userSpaceOnUse">
<stop stop-color="white"/>
<stop offset="1" stop-color="#8AEAFF" stop-opacity="0"/>
</linearGradient>
<linearGradient id="paint4_linear_144_1618" x1="383.747" y1="291.842" x2="537.137" y2="69.5814" gradientUnits="userSpaceOnUse">
<stop stop-color="#124593" stop-opacity="0.7"/>
<stop offset="0.693735" stop-color="#1C348A" stop-opacity="0.5"/>
<stop offset="0.880208" stop-color="#40F4FF"/>
<stop offset="1" stop-color="white"/>
</linearGradient>
<radialGradient id="paint5_radial_144_1618" cx="0" cy="0" r="1" gradientUnits="userSpaceOnUse" gradientTransform="translate(439.5 194.5) rotate(90) scale(102.5 229.5)">
<stop offset="0.0416667" stop-color="#9773FF"/>
<stop offset="0.5" stop-color="#739AFF" stop-opacity="0.8"/>
<stop offset="1" stop-color="#6978FF" stop-opacity="0"/>
</radialGradient>
<linearGradient id="paint6_linear_144_1618" x1="554.484" y1="156.528" x2="504.113" y2="118.773" gradientUnits="userSpaceOnUse">
<stop stop-color="white"/>
<stop offset="0.509629" stop-color="#FF96DB"/>
<stop offset="1" stop-color="#4AC9FF"/>
</linearGradient>
<linearGradient id="paint7_linear_144_1618" x1="360.695" y1="246.904" x2="336.474" y2="205.441" gradientUnits="userSpaceOnUse">
<stop stop-color="#8DEBFF"/>
<stop offset="1" stop-color="#5484FF"/>
</linearGradient>
<linearGradient id="paint8_linear_144_1618" x1="293.283" y1="182.425" x2="511.837" y2="151.7" gradientUnits="userSpaceOnUse">
<stop offset="0.09375" stop-color="#2FB4FF"/>
<stop offset="0.484375" stop-color="#181EAD" stop-opacity="0.4"/>
<stop offset="0.998998" stop-color="#40F4FF"/>
</linearGradient>
<linearGradient id="paint9_linear_144_1618" x1="322.45" y1="225.572" x2="507.128" y2="90.6519" gradientUnits="userSpaceOnUse">
<stop stop-color="#2FB4FF"/>
<stop offset="0.163279" stop-color="#1C348A" stop-opacity="0.8"/>
<stop offset="0.614583" stop-color="#2D18AD" stop-opacity="0.6"/>
<stop offset="1" stop-color="#40F4FF"/>
</linearGradient>
<linearGradient id="paint10_linear_144_1618" x1="542.133" y1="99.2374" x2="502.078" y2="133.9" gradientUnits="userSpaceOnUse">
<stop stop-color="white"/>
<stop offset="1" stop-color="#8AEAFF" stop-opacity="0"/>
</linearGradient>
<linearGradient id="paint11_linear_144_1618" x1="293.283" y1="182.425" x2="557.21" y2="142.708" gradientUnits="userSpaceOnUse">
<stop stop-color="#124593" stop-opacity="0.7"/>
<stop offset="0.693735" stop-color="#1C348A" stop-opacity="0.5"/>
<stop offset="0.880208" stop-color="#40F4FF"/>
<stop offset="1" stop-color="white"/>
</linearGradient>
<linearGradient id="paint12_linear_144_1618" x1="210.474" y1="84.8935" x2="210.474" y2="142.219" gradientUnits="userSpaceOnUse">
<stop stop-color="white"/>
<stop offset="0.223958" stop-color="#6BE4FF"/>
<stop offset="0.623188" stop-color="#371B73" stop-opacity="0.6"/>
<stop offset="1" stop-color="#0A1153" stop-opacity="0.4"/>
</linearGradient>
<linearGradient id="paint13_linear_144_1618" x1="49.9273" y1="164.743" x2="49.9273" y2="207.153" gradientUnits="userSpaceOnUse">
<stop stop-color="white"/>
<stop offset="0.223958" stop-color="#6BE4FF"/>
<stop offset="0.623188" stop-color="#371B73" stop-opacity="0.6"/>
<stop offset="1" stop-color="#0A1153" stop-opacity="0.4"/>
</linearGradient>
<radialGradient id="paint14_radial_144_1618" cx="0" cy="0" r="1" gradientUnits="userSpaceOnUse" gradientTransform="translate(200.047 252.716) rotate(90) scale(122.716 131.19)">
<stop stop-color="#FF65C1"/>
<stop offset="1" stop-color="#FF65C1" stop-opacity="0"/>
</radialGradient>
<linearGradient id="paint15_linear_144_1618" x1="227.032" y1="234.182" x2="227.032" y2="326.305" gradientUnits="userSpaceOnUse">
<stop stop-color="#13154D"/>
<stop offset="1" stop-color="#8E92EE" stop-opacity="0"/>
</linearGradient>
<linearGradient id="paint16_linear_144_1618" x1="266.071" y1="286.051" x2="269.967" y2="332.566" gradientUnits="userSpaceOnUse">
<stop stop-color="white" stop-opacity="0"/>
<stop offset="1" stop-color="white"/>
</linearGradient>
<radialGradient id="paint17_radial_144_1618" cx="0" cy="0" r="1" gradientUnits="userSpaceOnUse" gradientTransform="translate(127.311 271.226) rotate(-18.4825) scale(210.287 199.527)">
<stop offset="0.249306" stop-color="white"/>
<stop offset="0.48315" stop-color="#FF8FED" stop-opacity="0.5"/>
<stop offset="0.627037" stop-color="#220C7A" stop-opacity="0.5"/>
</radialGradient>
<linearGradient id="paint18_linear_144_1618" x1="137.493" y1="264.055" x2="321.947" y2="241.797" gradientUnits="userSpaceOnUse">
<stop stop-color="white"/>
<stop offset="1" stop-color="#12178E" stop-opacity="0.4"/>
</linearGradient>
<linearGradient id="paint19_linear_144_1618" x1="242.51" y1="328.678" x2="216.208" y2="261.595" gradientUnits="userSpaceOnUse">
<stop offset="0.0011346" stop-color="white"/>
<stop offset="1" stop-color="white" stop-opacity="0"/>
</linearGradient>
<radialGradient id="paint20_radial_144_1618" cx="0" cy="0" r="1" gradientUnits="userSpaceOnUse" gradientTransform="translate(171.163 272.379) rotate(-13.9287) scale(145.756 137.469)">
<stop offset="0.239373" stop-color="white"/>
<stop offset="0.410099" stop-color="#FFCEF1"/>
<stop offset="0.67492" stop-color="#B6B9FF"/>
<stop offset="0.861176" stop-color="#FFA8E7"/>
<stop offset="1" stop-color="white"/>
</radialGradient>
<radialGradient id="paint21_radial_144_1618" cx="0" cy="0" r="1" gradientUnits="userSpaceOnUse" gradientTransform="translate(297.009 290.699) rotate(-123.46) scale(80.2599 82.5416)">
<stop stop-color="#3F52FF"/>
<stop offset="1" stop-color="#3F52FF" stop-opacity="0"/>
</radialGradient>
<linearGradient id="paint22_linear_144_1618" x1="132.608" y1="216.001" x2="323.506" y2="222.342" gradientUnits="userSpaceOnUse">
<stop stop-color="white"/>
<stop offset="1" stop-color="#5653FF" stop-opacity="0.2"/>
</linearGradient>
<linearGradient id="paint23_linear_144_1618" x1="214.323" y1="308.507" x2="209.071" y2="223.448" gradientUnits="userSpaceOnUse">
<stop stop-color="white"/>
<stop offset="1" stop-color="white" stop-opacity="0"/>
</linearGradient>
<linearGradient id="paint24_linear_144_1618" x1="227.031" y1="147.406" x2="227.031" y2="237.956" gradientUnits="userSpaceOnUse">
<stop stop-color="#13154D" stop-opacity="0.5"/>
<stop offset="1" stop-color="#8E92EE" stop-opacity="0"/>
</linearGradient>
<linearGradient id="paint25_linear_144_1618" x1="240.119" y1="257.615" x2="248.818" y2="157.379" gradientUnits="userSpaceOnUse">
<stop stop-color="white"/>
<stop offset="1" stop-color="white" stop-opacity="0"/>
</linearGradient>
<linearGradient id="paint26_linear_144_1618" x1="227.032" y1="147.406" x2="227.032" y2="206.505" gradientUnits="userSpaceOnUse">
<stop stop-color="#13154D"/>
<stop offset="1" stop-color="#8E92EE" stop-opacity="0"/>
</linearGradient>
<linearGradient id="paint27_linear_144_1618" x1="245.68" y1="249.986" x2="229.306" y2="147.044" gradientUnits="userSpaceOnUse">
<stop stop-color="white"/>
<stop offset="1" stop-color="white" stop-opacity="0"/>
</linearGradient>
<linearGradient id="paint28_linear_144_1618" x1="227.031" y1="149.501" x2="227.031" y2="184.235" gradientUnits="userSpaceOnUse">
<stop stop-color="#13154D"/>
<stop offset="1" stop-color="#8E92EE" stop-opacity="0"/>
</linearGradient>
<linearGradient id="paint29_linear_144_1618" x1="241.602" y1="220.857" x2="228.797" y2="149.185" gradientUnits="userSpaceOnUse">
<stop stop-color="white"/>
<stop offset="1" stop-color="white" stop-opacity="0"/>
</linearGradient>
<radialGradient id="paint30_radial_144_1618" cx="0" cy="0" r="1" gradientUnits="userSpaceOnUse" gradientTransform="translate(127.311 271.225) rotate(-18.4825) scale(210.287 199.527)">
<stop offset="0.249306" stop-color="white"/>
<stop offset="0.48315" stop-color="#FF8FED" stop-opacity="0.5"/>
<stop offset="0.627037" stop-color="#220C7A" stop-opacity="0"/>
</radialGradient>
</defs>
</svg>
